<?xml version="1.0" encoding="utf-8"?>
<!-- Generator: Adobe Illustrator 18.1.1, SVG Export Plug-In . SVG Version: 6.00 Build 0)  -->
<!DOCTYPE svg PUBLIC "-//W3C//DTD SVG 1.1//EN" "http://www.w3.org/Graphics/SVG/1.1/DTD/svg11.dtd">
<svg version="1.1" id="Layer_1" xmlns="http://www.w3.org/2000/svg" xmlns:xlink="http://www.w3.org/1999/xlink" x="0px" y="0px"
	 viewBox="0 0 35.4 54.2" enable-background="new 0 0 35.4 54.2" xml:space="preserve">
<path fill="#fff" d="M35.3,51.8c0.4-1.7-0.1-3.4-1.8-3.9c-3.2-0.8-6-3.4-9.1-6.7c-1.3-1.4-2.7-2.9-4.2-4.3c7.4-2.7,12.8-9.8,12.8-18.2
	C33.1,8.2,24.4,0,13.8,0H2.6C0.9,0,0,1.4,0,3.2c0,1.8,0.9,3.2,2.6,3.2h11.2c7.1,0,12.9,5.3,12.9,12.4c0,7.1-5.8,12.9-12.9,12.9H2.6
	c-1.8,0-2.6,1.4-2.6,3.2c0,1.8,0.9,3.2,2.6,3.2h6.3c4,0,7.4,3.6,10.9,7.5c3.5,3.8,7.1,7.3,12.2,8.5c0.3,0.1,0.5,0.1,0.8,0.1
	C34.2,54.2,34.9,53.2,35.3,51.8"/>
</svg>
