<?xml version="1.0" encoding="utf-8"?>
<!-- Generator: Adobe Illustrator 18.1.1, SVG Export Plug-In . SVG Version: 6.00 Build 0)  -->
<!DOCTYPE svg PUBLIC "-//W3C//DTD SVG 1.1//EN" "http://www.w3.org/Graphics/SVG/1.1/DTD/svg11.dtd">
<svg version="1.1" id="Layer_1" xmlns="http://www.w3.org/2000/svg" xmlns:xlink="http://www.w3.org/1999/xlink" x="0px" y="0px"
	 viewBox="0 0 24 25" enable-background="new 0 0 35.4 54.2" xml:space="preserve">
<path d="M16.36 17.715a.638.638 0 0 0-.395-.3c-.739-.19-1.398-.837-2-1.509-.256-.284-.574-.639-.903-.95l-.064-.06.081-.03c1.644-.608 2.749-2.219 2.749-4.01 0-2.325-1.822-4.146-4.149-4.146H9.363a.65.65 0 0 0-.642.657v.01a.65.65 0 0 0 .642.649h2.316c1.608 0 2.868 1.243 2.868 2.83 0 1.623-1.286 2.944-2.868 2.944H9.363a.65.65 0 0 0-.643.657.65.65 0 0 0 .643.658h1.246c.904 0 1.637.818 2.413 1.683.717.799 1.51 1.603 2.63 1.892a.626.626 0 0 0 .486-.074.666.666 0 0 0 .221-.901M24 12.491c0 6.79-5.373 12.293-12 12.293S0 19.281 0 12.491C0 5.701 5.373.198 12 .198S24 5.702 24 12.49" fill="#FFF" fill-rule="evenodd" />
</svg>
